<svg width="20" height="20" viewBox="0 0 20 20" fill="none" xmlns="http://www.w3.org/2000/svg">
<path d="M2.08514 2.91663H17.9185V15.4166H10.0018L5.83514 17.7083V15.4166H2.08514V2.91663Z" stroke="#66635D" stroke-linecap="square"/>
<path d="M6.25031 8.625C6.54931 8.62518 6.79132 8.86795 6.79132 9.16699C6.79114 9.46589 6.5492 9.70783 6.25031 9.70801C5.95126 9.70801 5.70849 9.466 5.70831 9.16699C5.70831 8.86784 5.95115 8.625 6.25031 8.625ZM10.0003 8.625C10.2993 8.62518 10.5413 8.86795 10.5413 9.16699C10.5411 9.46589 10.2992 9.70783 10.0003 9.70801C9.70126 9.70801 9.45849 9.466 9.45831 9.16699C9.45831 8.86784 9.70115 8.625 10.0003 8.625ZM13.7503 8.625C14.0493 8.62518 14.2913 8.86795 14.2913 9.16699C14.2911 9.46589 14.0492 9.70783 13.7503 9.70801C13.4513 9.70801 13.2085 9.466 13.2083 9.16699C13.2083 8.86784 13.4512 8.625 13.7503 8.625Z" fill="#66635D" stroke="#66635D" stroke-width="0.25" stroke-linecap="square"/>
</svg>
