<svg width="16" height="17" viewBox="0 0 16 17" fill="none" xmlns="http://www.w3.org/2000/svg">
<path d="M7.7659 7.35904L3.35839 11.7399C2.87155 12.2238 2.87155 13.0083 3.35839 13.4922C3.84523 13.9761 4.63455 13.9761 5.12139 13.4922L13.9364 4.73052C14.4232 4.24667 14.6666 3.61252 14.6667 2.97835C14.6667 2.34407 14.4233 1.70978 13.9364 1.22584C13.4496 0.741956 12.8115 0.500008 12.1734 0.5C11.5353 0.499992 10.8973 0.74194 10.4104 1.22584L1.59539 9.98755C0.865087 10.7134 0.499958 11.6648 0.5 12.6162C0.500042 13.5675 0.865171 14.5188 1.59539 15.2446C2.32566 15.9704 3.28279 16.3333 4.23992 16.3333C5.19704 16.3333 6.15415 15.9704 6.8844 15.2446L11.2919 10.8637" stroke="#66635D" stroke-linecap="square"/>
</svg>
