<svg width="20" height="20" viewBox="0 0 20 20" fill="none" xmlns="http://www.w3.org/2000/svg">
<path d="M13.3333 5.41665C13.3333 7.2576 11.8409 8.74998 9.99996 8.74998C8.15901 8.74998 6.66663 7.2576 6.66663 5.41665C6.66663 3.5757 8.15901 2.08331 9.99996 2.08331C11.8409 2.08331 13.3333 3.5757 13.3333 5.41665Z" stroke="#66635D" stroke-linejoin="round"/>
<path d="M3.33337 17.0834L2.83529 17.0397L2.78758 17.5834H3.33337V17.0834ZM16.6667 17.0834V17.5834H17.2125L17.1648 17.0397L16.6667 17.0834ZM3.33337 17.0834L3.83146 17.1271C4.14168 13.5914 6.58743 10.9167 10 10.9167V10.4167V9.91669C5.9634 9.91669 3.18096 13.1 2.83529 17.0397L3.33337 17.0834ZM10 10.4167V10.9167C13.4127 10.9167 15.8584 13.5914 16.1686 17.1271L16.6667 17.0834L17.1648 17.0397C16.8191 13.1 14.0367 9.91669 10 9.91669V10.4167ZM3.33337 17.0834V17.5834H16.6667V17.0834V16.5834H3.33337V17.0834Z" fill="#66635D"/>
</svg>
