<svg width="48" height="24" viewBox="0 0 48 24" fill="none" xmlns="http://www.w3.org/2000/svg">
<path d="M9.876 1.668L8.1 1.248L9.576 0.192H9.84L10.644 5.628L10.08 5.736L7.836 1.956L8.412 2.664C7.98 2.344 7.532 2.112 7.068 1.968C6.612 1.816 6.124 1.74 5.604 1.74C4.588 1.74 3.816 1.968 3.288 2.424C2.76 2.88 2.496 3.484 2.496 4.236C2.496 4.748 2.608 5.18 2.832 5.532C3.064 5.876 3.372 6.172 3.756 6.42C4.148 6.66 4.592 6.876 5.088 7.068C5.584 7.252 6.1 7.44 6.636 7.632C7.18 7.824 7.716 8.04 8.244 8.28C8.78 8.512 9.268 8.804 9.708 9.156C10.148 9.5 10.5 9.936 10.764 10.464C11.036 10.984 11.172 11.628 11.172 12.396C11.172 13.468 10.912 14.376 10.392 15.12C9.872 15.864 9.16 16.432 8.256 16.824C7.352 17.208 6.316 17.4 5.148 17.4C4.348 17.4 3.632 17.344 3 17.232C2.376 17.128 1.72 16.944 1.032 16.68L0 12.336H0.672L3.744 16.692L1.548 15.3C2.188 15.644 2.756 15.896 3.252 16.056C3.756 16.208 4.292 16.284 4.86 16.284C5.748 16.284 6.496 16.172 7.104 15.948C7.72 15.724 8.184 15.388 8.496 14.94C8.816 14.492 8.976 13.936 8.976 13.272C8.976 12.672 8.836 12.176 8.556 11.784C8.284 11.384 7.916 11.056 7.452 10.8C6.996 10.536 6.496 10.308 5.952 10.116C5.416 9.924 4.884 9.732 4.356 9.54C3.828 9.34 3.328 9.12 2.856 8.88C2.392 8.64 1.98 8.356 1.62 8.028C1.268 7.7 0.988 7.3 0.78 6.828C0.58 6.356 0.48 5.792 0.48 5.136C0.48 4.224 0.7 3.436 1.14 2.772C1.588 2.1 2.22 1.584 3.036 1.224C3.852 0.856 4.812 0.672 5.916 0.672C6.652 0.672 7.332 0.752 7.956 0.912C8.588 1.064 9.228 1.316 9.876 1.668Z" fill="#6B2400"/>
<path d="M15.1033 3.228C14.6233 3.228 14.2313 3.072 13.9273 2.76C13.6313 2.448 13.4833 2.064 13.4833 1.608C13.4833 1.16 13.6313 0.784001 13.9273 0.480001C14.2313 0.168001 14.6233 0.0120006 15.1033 0.0120006C15.5913 0.0120006 15.9833 0.168001 16.2793 0.480001C16.5753 0.784001 16.7233 1.16 16.7233 1.608C16.7233 2.064 16.5753 2.448 16.2793 2.76C15.9833 3.072 15.5913 3.228 15.1033 3.228ZM16.4473 6.36L16.3633 8.508V16.128L18.0793 16.692V17.136H12.3553V16.692L14.0593 16.128V8.784C13.9633 8.672 13.8273 8.556 13.6513 8.436C13.4753 8.316 13.2753 8.196 13.0513 8.076C12.8273 7.956 12.5953 7.852 12.3553 7.764V7.38L16.1473 6.36H16.4473Z" fill="#6B2400"/>
<path d="M20.451 16.464L21.735 16.44L19.683 17.388L19.311 17.22L19.623 14.652V2.628C19.519 2.5 19.383 2.372 19.215 2.244C19.047 2.108 18.843 1.972 18.603 1.836C18.371 1.7 18.099 1.56 17.787 1.416V1.104L21.807 0H22.071L21.927 2.112V14.076C21.927 14.508 22.031 14.9 22.239 15.252C22.455 15.604 22.759 15.88 23.151 16.08C23.543 16.28 24.007 16.38 24.543 16.38C25.175 16.38 25.711 16.212 26.151 15.876C26.591 15.532 26.931 15.032 27.171 14.376C27.411 13.72 27.531 12.924 27.531 11.988C27.531 11.092 27.399 10.34 27.135 9.732C26.879 9.116 26.515 8.656 26.043 8.352C25.571 8.04 25.019 7.884 24.387 7.884C23.979 7.884 23.583 7.92 23.199 7.992C22.823 8.064 22.467 8.176 22.131 8.328C21.803 8.472 21.495 8.66 21.207 8.892L21.015 8.1C21.455 7.804 21.875 7.552 22.275 7.344C22.675 7.128 23.055 6.948 23.415 6.804C23.775 6.66 24.123 6.552 24.459 6.48C24.795 6.408 25.119 6.372 25.431 6.372C26.439 6.372 27.283 6.584 27.963 7.008C28.651 7.424 29.171 8.004 29.523 8.748C29.883 9.492 30.063 10.356 30.063 11.34C30.063 12.284 29.907 13.128 29.595 13.872C29.291 14.616 28.867 15.252 28.323 15.78C27.779 16.308 27.147 16.712 26.427 16.992C25.707 17.264 24.935 17.4 24.111 17.4C23.719 17.4 23.331 17.368 22.947 17.304C22.563 17.24 22.167 17.14 21.759 17.004C21.351 16.868 20.915 16.688 20.451 16.464Z" fill="#6B2400"/>
<path d="M37.3843 15.132L36.2083 17.904L31.3963 7.716L29.9323 7.152V6.636H35.4283V7.152L33.9163 7.632L37.3843 15.132ZM32.7043 23.412C32.2483 23.412 31.8723 23.288 31.5763 23.04C31.2803 22.792 31.1323 22.452 31.1323 22.02C31.1323 21.788 31.1763 21.588 31.2643 21.42C31.3603 21.252 31.4803 21.12 31.6243 21.024C31.7763 20.936 31.9283 20.892 32.0803 20.892C32.2323 20.892 32.3763 20.928 32.5123 21C32.6563 21.072 32.8123 21.144 32.9803 21.216C33.1483 21.288 33.3443 21.324 33.5683 21.324C33.7843 21.324 33.9803 21.284 34.1563 21.204C34.3323 21.124 34.5003 20.976 34.6603 20.76C34.8283 20.552 34.9963 20.252 35.1643 19.86L36.5203 16.596L37.1083 15.06L39.7963 7.572L38.2963 7.152V6.636H42.2203V7.152L40.9603 7.584L36.2803 19.584C35.8883 20.584 35.5123 21.36 35.1523 21.912C34.7923 22.472 34.4163 22.86 34.0243 23.076C33.6323 23.3 33.1923 23.412 32.7043 23.412Z" fill="#6B2400"/>
<path d="M45.9489 16.128L47.6649 16.692V17.136H41.9409V16.692L43.6449 16.128V2.616C43.5329 2.48 43.3929 2.348 43.2249 2.22C43.0569 2.092 42.8529 1.964 42.6129 1.836C42.3809 1.7 42.1089 1.564 41.7969 1.428V1.104L45.8169 0H46.0809L45.9489 2.124V16.128Z" fill="#6B2400"/>
</svg>
